<?xml version="1.0" encoding="UTF-8" standalone="no"?>
<!-- Created with Inkscape (http://www.inkscape.org/) -->
<svg
   xmlns:svg="http://www.w3.org/2000/svg"
   xmlns="http://www.w3.org/2000/svg"
   version="1.0"
   width="723.17773"
   height="466.72705"
   id="svg2">
  <defs
     id="defs4" />
  <g
     transform="translate(-28.74605,-544.6694)"
     id="layer1">
    <path
       d="M 375.80597,1008.4998 C 374.23085,1006.7047 372.19309,1005.4998 370.73251,1005.4998 C 363.24466,1005.4998 359.32526,1001.1371 358.86744,992.29283 C 358.59927,987.11223 359.66524,985.29243 364.02622,983.48613 C 367.50431,982.04543 367.61623,980.82973 365.14317,971.35263 C 362.85811,962.59603 361.84132,961.49983 356.00397,961.49983 C 351.57179,961.49983 343.12994,958.77163 338.45073,955.82713 C 337.32745,955.12033 335.07745,952.71953 333.45073,950.49213 C 331.4833,947.79833 327.79833,944.95503 322.4444,941.99993 C 311.68253,936.05983 309.55663,933.71133 309.84789,928.08453 C 310.0447,924.28253 309.70124,923.43403 307.2841,921.75013 C 302.55457,918.45533 298.69432,917.54793 295.92726,919.08063 C 290.94319,921.84133 288.90166,920.29313 287.91228,913.00233 C 286.82653,905.00143 285.42079,904.15433 284.09011,910.69903 C 283.0594,915.76843 279.77246,915.69473 276.51152,910.52903 C 275.08931,908.27613 272.14264,905.21043 269.96334,903.71633 C 266.98487,901.67433 265.72143,899.94143 264.87516,896.73733 C 263.39311,891.12613 257.78602,886.49983 252.46723,886.49983 C 249.49063,886.49983 248.05684,885.78693 245.42829,882.99983 C 242.16023,879.53463 239.99306,878.54663 239.99306,880.52183 C 239.99306,882.32063 230.72434,887.50073 227.54728,887.47763 C 225.86746,887.46533 223.36806,886.57533 221.99306,885.49983 C 218.82226,883.01963 211.84081,882.88593 207.87337,885.22963 C 204.37602,887.29553 201.65972,886.14343 201.19654,882.39773 C 200.69805,878.36633 198.82556,874.49983 197.37173,874.49983 C 196.61346,874.49983 195.99305,875.15913 195.99305,875.96503 C 195.99305,876.77093 194.64223,878.96873 192.99123,880.84913 C 191.34023,882.72953 189.70831,885.67353 189.36474,887.39143 C 189.01343,889.14793 187.24853,891.82433 185.33176,893.50733 C 179.98898,898.19833 174.27638,897.24943 171.52428,891.21373 C 170.71827,889.44613 168.91902,885.98183 167.52593,883.51533 C 164.95313,878.96003 164.21871,874.09643 165.94277,873.03093 C 167.14719,872.28653 175.42509,861.42963 176.92482,858.62733 C 177.80561,856.98153 177.71044,855.85403 176.49184,853.49753 C 174.98662,850.58673 174.68608,850.47803 168.21149,850.50373 C 164.51635,850.51843 159.01805,850.41103 155.99305,850.26513 C 152.96805,850.11923 148.45821,850.34953 145.97119,850.77693 C 140.31915,851.74813 138.20789,850.38623 136.98926,844.98303 C 136.23873,841.65523 136.40789,840.68713 138.04423,838.94533 C 140.64626,836.17563 140.49995,834.84383 137.51124,834.09373 C 133.76426,833.15333 131.69564,828.30223 132.40905,822.12863 C 133.21993,815.11163 133.22327,813.76263 132.4443,807.89564 C 131.63007,801.76308 133.01759,798.49983 136.43934,798.49983 C 139.11322,798.49983 143.99305,793.38225 143.99305,790.57809 C 143.99305,789.60553 144.90289,787.98641 146.01492,786.98004 C 147.90429,785.27018 148.25658,785.25507 151.39046,786.74952 C 155.77713,788.84138 156.99305,787.60631 156.99305,781.05869 C 156.99305,777.31795 156.09457,774.19916 153.50999,768.96837 C 148.82324,759.48313 148.31648,756.55586 150.82563,753.46246 L 152.82315,750.99983 L 155.31889,753.34033 C 158.68287,756.49508 160.91487,755.78928 162.53756,751.05765 C 164.46751,745.43007 166.99775,742.43085 172.58463,739.14836 C 176.88824,736.61984 177.84891,736.40754 180.55648,737.38661 C 185.67672,739.23811 186.32247,738.91723 185.66236,734.84946 C 185.13619,731.60706 185.45685,730.84475 188.53152,728.02846 C 190.43536,726.28461 191.99305,724.60852 191.99305,724.30383 C 191.99305,723.99913 190.63154,723.47753 188.96748,723.14472 C 187.30342,722.8119 184.89796,721.51815 183.62202,720.26972 C 179.74675,716.478 175.17451,713.49805 173.28354,713.53163 C 172.29877,713.54913 170.61954,714.22413 169.55192,715.03163 C 166.5487,717.30315 162.68551,716.78407 158.15175,713.49983 C 152.8452,709.65579 149.1409,709.65579 143.83435,713.49983 C 141.55659,715.14983 138.66281,716.49983 137.40371,716.49983 C 136.14462,716.49983 132.04963,718.07263 128.30375,719.99495 C 124.55786,721.91726 120.81139,723.49226 119.97824,723.49495 C 119.1451,723.49763 116.6701,722.5254 114.47824,721.33443 C 112.28639,720.14346 108.28987,718.81019 105.59709,718.37162 C 102.90431,717.93304 99.725297,716.65747 98.532627,715.53702 C 95.854207,713.02076 90.390097,712.86598 85.559507,715.16953 C 82.093147,716.82252 82.007107,716.80752 76.959137,713.66953 C 74.154697,711.92619 71.102557,710.50176 70.176607,710.50411 C 69.250647,710.50647 66.468047,711.85454 63.993057,713.49983 C 58.834297,716.92919 52.844127,717.48468 49.123616,714.87873 C 47.236786,713.55714 45.366306,713.38348 38.999906,713.93883 C 31.730136,714.57298 31.086186,714.47089 29.678376,712.46096 C 27.548266,709.41979 29.221036,705.06225 33.142086,703.4381 C 36.361676,702.1045 37.993056,699.11951 37.993056,694.56209 C 37.993056,692.46234 39.190536,690.70748 42.743056,687.6012 C 45.355546,685.31685 48.740316,682.34286 50.264746,680.99232 C 52.468907,679.03961 54.051087,678.55967 57.991677,678.64845 C 61.271277,678.72233 63.884637,678.14116 65.719977,676.92979 C 74.240457,671.30605 92.521677,662.49983 95.675747,662.49983 C 96.860437,662.49983 100.10944,660.55391 102.89575,658.17557 C 107.09505,654.5911 109.11923,653.63961 114.7274,652.61395 C 118.44851,651.93341 122.39305,650.80051 123.49305,650.0964 C 124.59305,649.3923 126.81857,648.48936 128.43865,648.08987 C 130.05872,647.69039 132.88688,646.04421 134.72344,644.43169 C 137.91259,641.63157 138.48732,641.49983 147.5135,641.49983 C 158.39051,641.49983 165.73265,639.89565 166.54313,637.34205 C 166.84755,636.38291 166.6088,633.78656 166.01258,631.57237 C 165.09004,628.14629 165.22111,626.98448 166.89246,623.77321 C 167.97262,621.69785 170.41715,618.96015 172.32475,617.68942 C 174.77577,616.05671 175.9841,614.36108 176.44417,611.90869 C 176.91711,609.38772 178.21653,607.62609 181.19417,605.4691 C 183.44859,603.836 186.15255,602.49983 187.20295,602.49983 C 189.60623,602.49983 199.99305,592.78639 199.99305,590.53891 C 199.99305,589.61997 198.20996,587.86596 196.03062,586.6411 C 190.57388,583.57424 187.99305,579.64557 187.99305,574.40587 C 187.99305,570.54638 187.4963,569.66158 182.99305,565.49983 C 178.28384,561.14775 177.99394,560.59173 178.00836,555.93942 C 178.02583,550.30577 178.31822,549.72353 182.64742,546.70165 C 186.97701,543.6795 189.17415,543.91534 196.32479,548.16979 C 210.2199,556.43702 213.21481,557.67912 217.81156,557.08112 C 220.66408,556.71003 223.10834,557.02521 225.0119,558.00957 C 226.59691,558.82921 229.39418,559.49983 231.22806,559.49983 C 233.06193,559.49983 237.12304,560.39983 240.25274,561.49983 C 243.38243,562.59983 246.60816,563.49983 247.42102,563.49983 C 250.65155,563.49983 253.99306,565.83943 253.99306,568.10133 C 253.99306,569.35558 253.54306,570.65991 252.99306,570.99983 C 250.37067,572.62055 252.13915,576.98243 257.8239,582.9149 C 264.4709,589.85154 267.99306,598.20711 267.99306,607.03901 C 267.99306,612.96236 269.93973,615.49983 274.48394,615.49983 C 279.27922,615.49983 285.66655,619.95648 287.0187,624.24575 C 287.6696,626.31049 289.18952,629.57483 290.3963,631.49983 C 291.60308,633.42483 294.34115,639.49983 296.48089,644.99983 C 299.68579,653.23771 301.24043,655.83684 305.30342,659.74983 C 310.53476,664.78804 312.42815,665.39434 315.55193,663.03163 C 318.10823,661.09815 322.47787,661.11616 325.46361,663.07249 C 326.78371,663.93745 329.10532,664.49995 330.62275,664.32249 C 332.91849,664.054 333.98141,662.82457 336.95366,656.99983 C 343.02493,645.1019 346.65527,640.49983 349.96967,640.49983 C 352.38147,640.49983 355.99306,642.62089 355.99306,644.03733 C 355.99306,644.25439 355.23494,646.02178 354.30834,647.96487 C 352.68553,651.36793 352.70391,651.64062 354.80834,655.38495 C 357.72027,660.56604 357.56583,662.5769 353.99306,665.99983 C 350.53758,669.31039 350.15621,671.9816 352.92732,673.46465 C 355.15717,674.65802 360.02602,674.81137 361.49587,673.73452 C 362.04742,673.33044 363.82392,670.97483 365.44366,668.49983 C 369.42748,662.41245 370.71758,661.49983 375.33903,661.49983 C 378.66938,661.49983 379.91714,662.14571 383.1479,665.54194 C 386.10116,668.64646 386.99306,670.39339 386.99306,673.07332 C 386.99306,676.90557 389.06537,678.51464 391.45099,676.53474 C 392.23884,675.88088 393.623,673.11934 394.52689,670.39797 C 395.86162,666.37949 396.89758,665.07903 400.04186,663.47494 C 407.24687,659.79921 413.01668,661.77796 414.47669,668.42534 C 415.60513,673.56309 418.75261,677.50012 421.72835,677.49609 C 425.04783,677.4916 430.99305,674.0735 430.99305,672.16952 C 430.99305,670.54737 427.82771,667.49983 426.14287,667.49983 C 425.48689,667.49983 424.456,666.41524 423.85201,665.08963 C 422.98367,663.18383 423.0928,662.19551 424.37345,660.36712 C 426.38612,657.49363 426.43437,654.25392 424.51963,650.55123 C 423.16739,647.93628 423.21447,647.48805 425.09221,645.10089 C 426.21751,643.67031 427.99055,642.49983 429.0323,642.49983 C 431.57654,642.49983 437.37985,648.45548 442.0953,655.90574 C 447.56324,664.54491 447.6169,664.59334 450.50508,663.49526 C 452.08525,662.89448 453.929,662.90518 455.55815,663.52458 C 456.96895,664.06097 460.9303,664.49983 464.36115,664.49983 C 469.76522,664.49983 471.16317,664.08497 474.81929,661.39623 C 479.2524,658.13608 484.17933,651.72618 485.50066,647.49983 C 485.93054,646.12483 487.79219,642.75584 489.63765,640.01318 C 491.48312,637.27052 492.99305,633.75344 492.99305,632.19744 C 492.99305,628.10557 494.52849,625.81752 499.28605,622.81991 C 505.92709,618.63556 512.02821,613.25245 513.66102,610.13667 C 515.27387,607.05898 517.99305,597.4294 517.99305,594.79543 C 517.99305,592.3419 522.5538,586.89812 527.40657,583.55933 C 532.57368,580.00427 533.70019,576.79227 531.44598,572.04187 C 529.96589,568.92282 529.97064,568.46366 531.50728,566.11846 C 533.31613,563.3578 542.24801,559.49983 546.83056,559.49983 C 548.34993,559.49983 550.07229,559.02059 550.65804,558.43484 C 552.74493,556.34795 566.29669,553.50781 571.17115,554.13576 C 574.8763,554.61307 576.43615,554.32844 578.67115,552.76717 C 582.17664,550.3184 593.4344,546.49983 597.14827,546.49983 C 601.49918,546.49983 603.99305,549.96018 603.99305,555.99726 C 603.99305,561.5122 603.16259,563.05087 598.45167,566.26431 C 595.53043,568.25697 591.71553,575.19204 590.5882,580.55923 C 590.10479,582.86072 589.1369,584.43747 583.42085,592.23516 C 581.84578,594.38384 581.9411,594.66022 585.8797,599.36445 C 588.97161,603.05739 591.02738,604.52285 594.2567,605.336 C 599.42486,606.63736 603.0601,610.35745 605.41206,616.75172 C 606.67883,620.19569 607.82586,621.67075 609.57943,622.11087 C 612.28752,622.79055 616.99305,627.86882 616.99305,630.11174 C 616.99305,630.91389 616.26844,632.67609 615.38281,634.02773 C 614.38793,635.54611 614.01032,637.43249 614.39469,638.96394 C 614.95675,641.20338 615.52238,641.44487 620.25492,641.46593 C 623.13589,641.47876 628.73363,641.51846 632.69433,641.55417 L 639.89561,641.61909 L 644.86202,646.55946 C 647.59354,649.27666 650.63792,651.49983 651.62731,651.49983 C 654.06228,651.49983 661.91631,654.46726 664.99305,656.5497 C 666.36805,657.48035 670.86805,659.95844 674.99305,662.05657 C 679.11805,664.1547 684.69971,667.67287 687.39675,669.87472 C 691.94605,673.58876 692.86365,673.91947 700.09334,674.4507 C 706.80229,674.94367 708.28379,675.40419 710.74436,677.76157 C 712.65313,679.59029 714.67486,680.49983 716.83098,680.49983 C 720.96815,680.49983 739.3568,689.95498 742.51182,693.70451 C 744.41609,695.9676 744.6977,697.04286 744.01216,699.43318 C 743.27276,702.01133 743.71479,703.07971 747.58064,708.05815 C 753.98479,716.30544 753.59113,717.93307 744.49305,720.82389 C 740.42943,722.11506 737.80756,722.2437 730.49305,721.51079 C 725.54305,721.01479 719.46805,720.10454 716.99305,719.48799 C 702.91532,715.98109 696.03777,715.53609 693.99305,717.99983 C 693.05968,719.12447 690.55395,719.49983 683.97981,719.49983 C 677.52932,719.49983 674.09266,720.00073 670.97911,721.39471 C 668.12827,722.67107 665.88932,723.04875 664.11991,722.55176 C 662.67514,722.14596 659.83466,722.0141 657.80774,722.25874 C 655.78082,722.50338 651.95582,721.99219 649.30774,721.12277 C 646.65966,720.25335 639.99305,719.28206 634.49305,718.96435 C 628.99305,718.64663 622.60356,717.9101 620.29417,717.32761 C 617.27164,716.56524 615.19123,716.5837 612.86829,717.39348 C 610.1614,718.3371 609.03722,718.20356 605.89334,716.56488 C 601.52302,714.28694 600.87142,714.73731 598.89177,721.40424 C 597.94563,724.59059 596.67257,726.34638 594.2885,727.75302 C 591.51116,729.39169 590.99546,730.27143 591.00836,733.34861 C 591.03353,739.35005 592.02931,740.12493 597.81187,738.6429 C 601.98298,737.57388 603.31666,737.6082 606.31696,738.86181 C 610.44317,740.58585 613.99305,746.54033 613.99305,751.73749 C 613.99305,758.11269 618.2783,761.26404 622.55192,758.03163 C 625.71156,755.6418 629.85617,756.10531 631.17315,758.99577 C 632.11086,761.05381 631.99624,761.83882 630.51983,763.47024 C 629.53503,764.55843 627.92413,765.70432 626.94006,766.01665 C 625.95599,766.32898 624.26904,768.27629 623.19129,770.34401 C 621.60506,773.38726 621.32659,775.42723 621.72961,781.05166 L 622.2275,787.99983 L 627.491,790.32076 C 631.21028,791.96077 633.29078,793.63748 634.58238,796.03585 C 635.58771,797.90263 637.66845,799.95116 639.20625,800.58814 C 640.74405,801.22512 643.35018,803.28149 644.99765,805.15785 C 647.37575,807.86636 647.99305,809.49687 647.99305,813.06981 C 647.99305,815.57913 647.2585,818.69123 646.33279,820.10403 C 645.41964,821.49773 644.30984,824.93223 643.86656,827.73643 C 643.28619,831.40783 642.18766,833.73553 639.94183,836.05263 C 636.88025,839.21143 636.85252,839.32743 638.42927,842.37653 C 639.96128,845.33903 639.91988,845.71073 637.53328,850.42043 C 634.42429,856.55573 633.77698,856.95653 630.07208,855.04073 C 626.20622,853.04153 603.56118,852.80443 602.30207,854.74983 C 601.85711,855.43733 601.4042,858.24983 601.2956,860.99983 C 601.187,863.74983 600.962,867.57483 600.7956,869.49983 C 600.49618,872.96363 600.53961,873.00503 604.99305,873.49983 C 608.91092,873.93513 609.72653,874.45263 611.29792,877.49983 C 613.30461,881.39113 613.24766,892.58163 611.21773,893.25823 C 610.60181,893.46353 608.16179,894.94373 605.79546,896.54753 C 599.95412,900.50643 595.9455,900.42293 591.50696,896.24983 C 589.60576,894.46233 587.23765,890.74983 586.24448,887.99983 C 583.93062,881.59293 581.16294,880.82333 578.73631,885.91203 C 577.81902,887.83563 575.62931,890.15373 573.87028,891.06333 C 570.92153,892.58813 570.40891,892.59173 567.29863,891.10853 C 563.95172,889.51243 556.90707,888.91913 555.69502,890.13123 C 555.34777,890.47843 555.72277,891.70353 556.52836,892.85373 C 559.2526,896.74313 557.9167,899.49983 553.30768,899.49983 C 552.4707,899.49983 549.1988,897.36233 546.0368,894.74983 C 542.8748,892.13733 538.98391,889.04193 537.39038,887.87123 L 534.49305,885.74263 L 536.84528,882.52343 C 538.57625,880.15453 538.90279,879.00953 538.08164,878.18843 C 536.59707,876.70383 532.57691,880.72033 529.09629,887.16563 C 526.5868,891.81263 526.27944,892.02503 521.15977,892.65033 C 515.06929,893.39413 511.53073,896.06143 510.62474,900.59143 C 510.23675,902.53133 508.87822,904.22503 506.66069,905.53343 C 504.51998,906.79643 502.70528,909.00473 501.69543,911.57553 C 500.18232,915.42753 499.91645,915.61173 496.29848,915.31353 L 492.49305,914.99983 L 492.49305,910.09563 C 492.49305,907.31973 491.99813,905.02113 491.35255,904.79883 C 490.23824,904.41513 489.79301,906.42423 488.3764,918.22873 C 487.45264,925.92623 484.16879,927.46933 480.52999,921.91583 C 479.30349,920.04403 478.06757,919.49983 475.04258,919.49983 C 469.99264,919.49983 467.0086,922.96363 466.95761,928.88473 C 466.90568,934.91623 465.353,936.90453 455.4427,943.63033 C 450.52039,946.97093 445.22279,951.23313 443.67025,953.10193 C 441.40803,955.82503 440.11718,956.50423 437.17025,956.52183 C 432.80618,956.54783 426.25178,959.36453 423.58806,962.35863 C 422.06056,964.07553 420.54911,964.49983 415.96051,964.49983 C 409.45242,964.49983 408.81891,964.99743 406.45214,971.96863 C 404.88205,976.59323 404.90025,980.70493 406.51461,986.08553 C 406.94553,987.52173 406.31065,989.15733 404.47579,991.33793 C 402.14215,994.11133 401.83677,995.28073 402.01715,1000.7522 C 402.29513,1009.1845 402.27564,1009.2782 399.99033,1010.5012 C 398.50821,1011.2944 396.88351,1011.1986 393.74033,1010.1325 C 390.08077,1008.8913 389.02645,1008.8863 386.12094,1010.0959 C 381.09114,1012.1899 378.72237,1011.8234 375.80597,1008.4998 z M 454.93855,882.24983 C 455.50194,881.56233 457.10941,879.56733 458.5107,877.81653 C 459.91199,876.06583 462.59628,874.12583 464.47579,873.50553 C 468.8227,872.07093 473.54958,866.71203 475.13465,861.42153 C 475.81215,859.16023 477.89305,855.89033 479.75888,854.15493 C 481.6247,852.41963 484.07479,849.19983 485.20352,846.99983 C 489.48034,838.66393 494.3552,832.26953 497.18559,831.28283 C 500.96367,829.96583 502.19366,827.53853 500.65494,824.43653 C 499.70518,822.52173 498.53472,821.93363 495.19069,821.69093 C 490.79274,821.37163 487.01164,822.78583 472.68853,830.10723 C 468.76018,832.11523 463.52285,833.88433 460.29795,834.29263 L 454.7119,834.99983 L 453.31609,839.99983 C 451.84679,845.26303 450.07384,856.91593 449.58847,864.49983 C 449.43007,866.97483 448.93764,871.85583 448.4942,875.34653 C 447.85683,880.36363 447.98175,881.87923 449.09049,882.58123 C 451.09896,883.85283 453.74794,883.70273 454.93855,882.24983 z M 315.4195,874.42933 C 321.28982,871.83263 322.79586,868.95953 321.27447,863.25963 C 320.58107,860.66183 320.51124,858.26713 321.08489,856.75833 C 322.50602,853.02043 322.23424,834.77393 320.74306,833.80883 C 320.05556,833.36393 316.34306,831.80763 312.49306,830.35053 C 308.64306,828.89333 302.56806,826.59023 298.99306,825.23233 C 295.41806,823.87453 289.23056,822.45203 285.24306,822.07113 C 276.43861,821.23023 275.95338,822.27623 281.86115,829.36103 C 283.98859,831.91233 286.88867,836.29813 288.30575,839.10723 C 289.72284,841.91633 292.05088,845.60353 293.47918,847.30093 C 294.90748,848.99843 296.73679,852.32503 297.54432,854.69353 C 298.35186,857.06203 300.80818,861.37143 303.00281,864.27013 C 305.19745,867.16873 306.99306,870.28333 306.99306,871.19133 C 306.99306,872.52003 309.63795,876.49983 310.52093,876.49983 C 310.64077,876.49983 312.84513,875.56813 315.4195,874.42933 z M 454.05293,794.92768 C 456.01251,792.56653 459.9533,782.74945 461.55832,776.23067 C 462.33957,773.05764 464.17166,768.10764 465.62964,765.23067 C 471.58747,753.47431 474.10542,746.00946 474.68281,738.39117 C 475.36595,729.37745 474.32401,728.01503 470.03077,732.30826 C 466.13859,736.20045 465.13766,736.50439 455.88638,736.60342 L 447.99305,736.68791 L 447.99305,740.52877 C 447.99305,742.64124 447.52709,745.59519 446.95759,747.09311 C 444.69654,753.04012 433.93936,762.48622 429.41736,762.49555 C 428.27574,762.4979 426.32468,763.58237 425.08169,764.90548 C 423.16872,766.94174 423.00204,767.64811 423.99619,769.50571 C 425.0284,771.43439 425.70347,771.62038 429.56812,771.04084 C 433.42294,770.46278 434.28051,770.69638 436.51816,772.93403 C 437.92211,774.33798 440.41695,778.30212 442.06227,781.74324 C 446.50534,791.0358 449.97975,796.49983 451.44553,796.49983 C 452.16198,796.49983 453.33531,795.79236 454.05293,794.92768 z M 333.02656,788.96417 C 334.33672,787.56956 336.55267,784.30706 337.95087,781.71417 C 339.94319,778.01953 341.63295,776.44394 345.76311,774.42978 C 348.66164,773.01625 351.48705,771.40584 352.04179,770.8511 C 353.4396,769.45329 349.98389,765.26815 344.16723,761.3144 C 341.59644,759.56696 339.07498,757.43132 338.56399,756.56853 C 338.053,755.70575 336.44509,753.87483 334.99086,752.49983 C 330.91652,748.64748 328.81301,744.87981 329.01819,741.80198 C 329.36556,736.59106 329.26964,736.49983 323.4434,736.49983 C 317.14132,736.49983 313.04972,734.76144 310.61851,731.05094 C 309.61224,729.51518 308.01253,728.49983 306.59917,728.49983 C 304.47458,728.49983 304.18755,729.0641 303.57985,734.43544 C 302.94135,740.0791 303.12741,740.80729 307.36245,749.23977 C 309.81222,754.11756 312.46453,758.64623 313.25647,759.30348 C 316.04999,761.62189 321.15687,774.49918 322.16255,781.76063 C 322.71397,785.74219 323.63152,789.56233 324.20154,790.24983 C 325.94502,792.35263 330.46139,791.69467 333.02656,788.96417 z M 606.56833,933.58303 C 604.34425,931.12543 605.87447,927.81863 609.67751,926.86413 C 614.20906,925.72683 617.12758,932.28713 613.05879,934.46463 C 610.23584,935.97543 608.52288,935.74273 606.56833,933.58303 z M 165.07293,927.09603 C 162.74329,924.28903 166.12867,918.84713 169.41908,920.10983 C 172.02648,921.11033 171.18596,927.90083 168.40554,928.29813 C 167.25742,928.46213 165.75774,927.92123 165.07293,927.09603 z M 599.15357,921.95273 C 596.27193,915.62823 599.60063,910.70223 604.56011,913.95183 C 607.52028,915.89143 607.82887,920.43343 605.16431,922.84483 C 602.5601,925.20163 600.49414,924.89503 599.15357,921.95273 z M 172.39503,917.10503 C 172.10064,916.33783 172.00227,913.97533 172.17642,911.85503 C 172.4677,908.30853 172.73326,907.99983 175.49305,907.99983 C 178.16434,907.99983 178.52815,908.36613 178.81338,911.34333 C 179.29474,916.36753 173.95235,921.16333 172.39503,917.10503 z M 516.54975,913.27733 C 513.07733,908.31973 516.48058,901.13023 520.43015,905.07983 C 523.66458,908.31423 524.23671,910.47903 522.54107,913.06693 C 520.55809,916.09333 518.57103,916.16313 516.54975,913.27733 z M 254.94191,911.44863 C 252.71695,909.22373 253.00098,906.39903 255.76633,903.24983 C 257.89432,900.82643 259.49982,901.05733 261.92048,904.13473 C 264.51139,907.42853 264.52654,908.96633 261.99306,911.49983 C 259.44933,914.04353 257.52281,914.02953 254.94191,911.44863 z M 222.07434,897.09773 C 220.03386,894.63913 221.11393,890.99983 223.88407,890.99983 C 226.99768,890.99983 228.89397,893.84693 227.38076,896.24983 C 225.92113,898.56763 223.60179,898.93823 222.07434,897.09773 z M 641.49305,781.65815 C 637.35387,779.12745 635.98961,777.25348 635.33077,773.19353 C 634.80632,769.96172 634.98199,769.66117 637.75081,769.05303 C 642.08518,768.10105 645.65329,769.30733 648.496,772.6857 C 651.69021,776.4818 651.6531,778.83547 648.35819,781.42725 C 645.16366,783.94007 645.22211,783.9381 641.49305,781.65815 z M 132.5777,776.59337 C 131.47718,775.3773 130.96838,773.4761 131.17272,771.34337 C 131.43377,768.61854 132.17835,767.66488 135.19648,766.18972 C 138.07774,764.78146 139.35425,764.62277 140.94648,765.47491 C 144.16187,767.19573 143.65052,772.08324 139.88729,775.59862 C 136.24547,779.00059 134.91951,779.18104 132.5777,776.59337 z "
       style="fill:black"
       id="path1933" />
  </g>
</svg>
